<svg width="360" height="276" viewBox="0 0 360 276" fill="none" xmlns="http://www.w3.org/2000/svg">
<path d="M176.426 78.0713C177.891 77.2575 179.396 76.2402 180.942 75.0195C182.57 73.7988 184.116 72.5374 185.581 71.2354C187.046 69.9333 188.348 68.7126 189.487 67.5732C190.708 66.3525 191.644 65.2946 192.295 64.3994C192.783 63.8298 193.434 63.5449 194.248 63.5449C195.632 63.5449 196.73 64.0739 197.544 65.1318C198.439 66.1084 198.887 67.1663 198.887 68.3057C198.887 69.1195 198.724 69.8112 198.398 70.3809C197.422 71.6829 196.16 73.1478 194.614 74.7754C193.149 76.3216 191.4 77.9085 189.365 79.5361C187.412 81.1637 185.256 82.832 182.896 84.541C180.535 86.1686 178.094 87.7148 175.571 89.1797C174.188 105.212 170.811 119.209 165.439 131.172C160.15 143.053 153.354 152.982 145.054 160.957C136.834 168.932 127.394 174.914 116.733 178.901C106.154 182.808 94.8828 184.761 82.9199 184.761C76.4095 184.761 69.8177 184.069 63.1445 182.686C56.5527 181.302 50.2051 179.186 44.1016 176.338C37.998 173.408 32.3014 169.746 27.0117 165.352C21.722 160.876 17.124 155.586 13.2178 149.482C9.31152 143.298 6.21908 136.299 3.94043 128.486C1.74316 120.592 0.644531 111.763 0.644531 101.997C0.644531 92.3128 1.78385 83.1576 4.0625 74.5312C6.42253 65.8236 9.84049 57.7669 14.3164 50.3613C18.8737 42.8743 24.4482 36.1605 31.04 30.2197C37.6318 24.1976 45.2409 19.0299 53.8672 14.7168C54.5182 14.3913 55.2507 14.2285 56.0645 14.2285C57.2038 14.2285 58.2617 14.6354 59.2383 15.4492C60.2148 16.263 60.7031 17.3617 60.7031 18.7451C60.7031 19.6403 60.4183 20.4948 59.8486 21.3086C59.3604 22.041 58.6686 22.6107 57.7734 23.0176C57.2852 23.2617 55.7389 24.0348 53.1348 25.3369C50.612 26.5576 47.5602 28.4701 43.9795 31.0742C40.4801 33.6784 36.696 37.015 32.627 41.084C28.6393 45.0716 24.9365 49.9544 21.5186 55.7324C18.182 61.5104 15.3743 68.2243 13.0957 75.874C10.8984 83.5238 9.7998 92.2314 9.7998 101.997C9.7998 110.949 10.7357 118.843 12.6074 125.679C14.5605 132.515 17.124 138.496 20.2979 143.623C23.4717 148.75 27.0931 153.104 31.1621 156.685C35.3125 160.265 39.5443 163.236 43.8574 165.596C48.252 167.956 52.6058 169.827 56.9189 171.211C61.2321 172.594 65.179 173.612 68.7598 174.263C72.4219 174.914 75.5143 175.321 78.0371 175.483C80.5599 175.646 82.2282 175.728 83.042 175.728C93.1331 175.728 102.777 174.141 111.973 170.967C121.169 167.793 129.429 162.91 136.753 156.318C144.077 149.645 150.221 141.182 155.186 130.928C160.231 120.674 163.649 108.467 165.439 94.3066C160.15 96.6667 154.616 98.5384 148.838 99.9219C143.141 101.224 137.16 101.875 130.894 101.875C122.267 101.875 113.885 100.776 105.747 98.5791C97.609 96.3005 90.4069 92.9232 84.1406 88.4473C77.8744 83.89 72.8288 78.234 69.0039 71.4795C65.179 64.7249 63.2666 56.8311 63.2666 47.7979C63.2666 40.4736 64.528 33.9225 67.0508 28.1445C69.6549 22.2852 73.1543 17.321 77.5488 13.252C81.9434 9.10156 87.0296 5.96842 92.8076 3.85254C98.5856 1.65527 104.648 0.556641 110.996 0.556641C116.204 0.556641 121.413 1.16699 126.621 2.3877C131.911 3.6084 136.956 5.52083 141.758 8.125C146.641 10.6478 151.157 13.8623 155.308 17.7686C159.539 21.6748 163.201 26.3542 166.294 31.8066C169.468 37.2591 171.95 43.4847 173.74 50.4834C175.531 57.4007 176.426 65.1725 176.426 73.7988V78.0713ZM166.904 83.8086C167.148 80.6348 167.271 77.4609 167.271 74.2871C167.271 62.7311 165.562 52.8434 162.144 44.624C158.807 36.4046 154.412 29.6908 148.96 24.4824C143.589 19.2741 137.526 15.4899 130.771 13.1299C124.017 10.6885 117.262 9.46777 110.508 9.46777C105.299 9.46777 100.376 10.3223 95.7373 12.0312C91.18 13.7402 87.1517 16.2223 83.6523 19.4775C80.2344 22.7327 77.5081 26.7611 75.4736 31.5625C73.5205 36.2826 72.5439 41.6943 72.5439 47.7979C72.5439 53.6572 73.7646 59.3132 76.2061 64.7656C78.7288 70.1367 82.4316 74.9381 87.3145 79.1699C92.1973 83.3203 98.2601 86.6569 105.503 89.1797C112.827 91.6211 121.331 92.8418 131.016 92.8418C137.607 92.8418 143.874 92.028 149.814 90.4004C155.837 88.7728 161.533 86.5755 166.904 83.8086Z" fill="#696969"/>
<path d="M305.645 167.712C301.82 173.897 296.652 180.041 290.142 186.145C283.631 192.167 276.185 197.619 267.803 202.502C259.502 207.303 250.428 211.169 240.581 214.099C230.734 217.11 220.562 218.615 210.063 218.615C201.844 218.615 193.625 217.883 185.405 216.418C177.267 214.953 169.414 212.715 161.846 209.704C154.359 206.693 147.36 202.909 140.85 198.352C134.421 193.713 128.805 188.26 124.004 181.994C119.202 175.728 115.418 168.607 112.651 160.632C109.966 152.657 108.623 143.786 108.623 134.021C108.623 124.499 110.007 115.466 112.773 106.921C115.622 98.376 119.569 90.4821 124.614 83.2393C129.66 75.915 135.641 69.3232 142.559 63.4639C149.476 57.6045 157.044 52.6403 165.264 48.5713C173.483 44.4209 182.15 41.2471 191.265 39.0498C200.379 36.8525 209.697 35.7539 219.219 35.7539C229.717 35.7539 239.564 37.0153 248.76 39.5381C258.037 41.9795 266.134 45.4788 273.052 50.0361C279.969 54.512 285.422 59.9238 289.409 66.2715C293.478 72.5378 295.513 79.5365 295.513 87.2676C295.513 94.429 293.844 101.265 290.508 107.775C287.171 114.204 282.573 119.86 276.714 124.743C270.936 129.626 264.141 133.492 256.328 136.34C248.597 139.188 240.337 140.612 231.548 140.612C224.468 140.612 218.201 139.758 212.749 138.049C207.297 136.258 202.739 133.817 199.077 130.725C195.415 127.632 192.648 124.011 190.776 119.86C188.905 115.71 187.969 111.234 187.969 106.433C187.969 102.445 188.579 98.8236 189.8 95.5684C191.102 92.2318 192.485 89.3835 193.95 87.0234C195.496 84.6634 196.921 82.8324 198.223 81.5303C199.606 80.1468 200.379 79.3737 200.542 79.2109C200.949 78.804 201.396 78.5599 201.885 78.4785C202.454 78.3158 202.983 78.2344 203.472 78.2344C204.774 78.2344 205.872 78.6413 206.768 79.4551C207.663 80.2689 208.11 81.3268 208.11 82.6289C208.11 84.0938 207.581 85.3145 206.523 86.291C206.361 86.3724 205.791 86.9421 204.814 88C203.838 88.9766 202.78 90.36 201.641 92.1504C200.501 93.8594 199.443 95.9346 198.467 98.376C197.572 100.817 197.124 103.503 197.124 106.433C197.124 111.071 198.141 114.978 200.176 118.151C202.292 121.325 205.018 123.929 208.354 125.964C211.691 127.917 215.394 129.341 219.463 130.236C223.532 131.05 227.601 131.457 231.67 131.457C239.238 131.457 246.318 130.236 252.91 127.795C259.583 125.354 265.402 122.098 270.366 118.029C275.33 113.96 279.237 109.281 282.085 103.991C284.933 98.7015 286.357 93.1676 286.357 87.3896C286.357 81.042 284.567 75.264 280.986 70.0557C277.406 64.766 272.563 60.29 266.46 56.6279C260.356 52.8844 253.195 49.9954 244.976 47.9609C236.838 45.9264 228.13 44.9092 218.853 44.9092C211.854 44.9092 204.489 45.7637 196.758 47.4727C189.108 49.1003 181.54 51.5824 174.053 54.9189C166.566 58.2555 159.404 62.4059 152.568 67.3701C145.814 72.3343 139.873 78.153 134.746 84.8262C129.619 91.418 125.509 98.8236 122.417 107.043C119.406 115.262 117.9 124.255 117.9 134.021C117.9 142.891 119.121 150.907 121.562 158.068C124.085 165.23 127.544 171.618 131.938 177.233C136.333 182.767 141.46 187.569 147.319 191.638C153.26 195.707 159.608 199.084 166.362 201.77C173.198 204.374 180.319 206.327 187.725 207.629C195.13 208.85 202.495 209.46 209.819 209.46C219.585 209.46 228.984 208.117 238.018 205.432C247.051 202.665 255.392 199.084 263.042 194.689C270.773 190.214 277.609 185.209 283.55 179.675C289.491 174.141 294.211 168.566 297.71 162.951C298.117 162.219 298.687 161.69 299.419 161.364C300.151 160.957 300.924 160.754 301.738 160.754C303.122 160.754 304.22 161.242 305.034 162.219C305.848 163.114 306.255 164.131 306.255 165.271C306.255 165.677 306.214 166.084 306.133 166.491C306.051 166.898 305.889 167.305 305.645 167.712Z" fill="#696969"/>
<path d="M335.181 220.84C335.474 224.795 335.62 229.531 335.62 235.049C335.62 240.957 335.254 246.377 334.521 251.309C333.789 256.289 332.715 260.562 331.299 264.126C329.883 267.739 328.125 270.547 326.025 272.549C323.926 274.551 321.509 275.552 318.774 275.552C317.407 275.552 316.113 275.234 314.893 274.6C313.672 273.965 312.598 273.062 311.67 271.89C310.791 270.718 310.083 269.326 309.546 267.715C309.058 266.104 308.813 264.297 308.813 262.295C308.813 259.316 309.155 256.167 309.839 252.847C310.571 249.526 311.743 246.06 313.354 242.446C314.966 238.833 317.09 235.049 319.727 231.094C322.363 227.188 325.61 223.11 329.468 218.862C329.272 216.763 329.004 214.81 328.662 213.003C328.369 211.196 327.979 209.634 327.49 208.315C327.002 206.997 326.416 205.972 325.732 205.239C325.098 204.507 324.316 204.141 323.389 204.141C323.096 204.141 322.754 204.189 322.363 204.287C321.24 205.605 320.215 206.631 319.287 207.363C318.408 208.096 317.603 208.657 316.87 209.048C316.138 209.438 315.503 209.683 314.966 209.78C314.478 209.878 314.111 209.927 313.867 209.927C313.037 209.927 312.231 209.707 311.45 209.268C310.718 208.779 310.352 207.9 310.352 206.631C310.352 206.191 310.498 205.63 310.791 204.946C311.133 204.263 311.67 203.555 312.402 202.822C313.135 202.041 314.087 201.333 315.259 200.698C316.479 200.015 317.944 199.502 319.653 199.16C322.876 195.693 325.391 192.52 327.197 189.639C329.004 186.709 329.907 183.975 329.907 181.436C329.907 179.238 329.224 177.48 327.856 176.162C326.489 174.844 324.756 174.185 322.656 174.185C319.727 174.185 316.797 175.552 313.867 178.286C310.938 181.021 308.301 184.805 305.957 189.639C305.42 190.713 304.565 191.25 303.394 191.25C302.563 191.25 301.904 190.957 301.416 190.371C300.928 189.785 300.684 189.15 300.684 188.467C300.684 188.027 300.781 187.637 300.977 187.295C303.857 181.387 307.178 176.797 310.938 173.525C314.697 170.254 318.628 168.618 322.729 168.618C324.39 168.618 325.977 168.911 327.49 169.497C329.053 170.083 330.42 170.938 331.592 172.061C332.764 173.135 333.691 174.478 334.375 176.089C335.059 177.651 335.4 179.458 335.4 181.509C335.4 183.218 335.156 184.878 334.668 186.489C334.229 188.052 333.618 189.59 332.837 191.104C332.056 192.568 331.152 193.984 330.127 195.352C329.102 196.719 328.052 198.037 326.978 199.307C328.296 199.893 329.37 200.723 330.2 201.797C331.079 202.871 331.787 204.067 332.324 205.386C332.91 206.704 333.35 208.071 333.643 209.487C333.936 210.903 334.18 212.271 334.375 213.589C336.23 211.587 338.159 209.463 340.161 207.217C342.163 204.971 344.092 202.7 345.947 200.405C347.803 198.11 349.487 195.864 351.001 193.667C352.563 191.421 353.784 189.321 354.663 187.368C354.907 186.831 355.249 186.44 355.688 186.196C356.128 185.903 356.616 185.757 357.153 185.757C357.983 185.757 358.643 186.05 359.131 186.636C359.668 187.173 359.937 187.783 359.937 188.467C359.937 188.857 359.863 189.224 359.717 189.565C358.643 192.007 357.129 194.644 355.176 197.476C353.223 200.259 351.099 203.066 348.804 205.898C346.509 208.682 344.165 211.367 341.772 213.955C339.38 216.543 337.183 218.838 335.181 220.84ZM329.98 226.699C326.904 230.459 324.365 233.999 322.363 237.319C320.361 240.64 318.75 243.765 317.529 246.694C316.357 249.624 315.527 252.334 315.039 254.824C314.551 257.363 314.307 259.683 314.307 261.782C314.307 264.272 314.746 266.274 315.625 267.788C316.504 269.302 317.578 270.059 318.848 270.059C320.557 270.059 322.095 269.18 323.462 267.422C324.878 265.664 326.074 263.247 327.051 260.171C328.027 257.144 328.784 253.555 329.321 249.404C329.858 245.254 330.127 240.786 330.127 236.001C330.127 234.731 330.103 233.291 330.054 231.68C330.054 230.117 330.029 228.457 329.98 226.699Z" fill="#696969"/>
</svg>
